<?xml version="1.0" encoding="UTF-8" standalone="no"?>
<!-- Created with Inkscape (http://www.inkscape.org/) -->

<svg
   xmlns:dc="http://purl.org/dc/elements/1.1/"
   xmlns:cc="http://creativecommons.org/ns#"
   xmlns:rdf="http://www.w3.org/1999/02/22-rdf-syntax-ns#"
   xmlns:svg="http://www.w3.org/2000/svg"
   xmlns="http://www.w3.org/2000/svg"
   xmlns:sodipodi="http://sodipodi.sourceforge.net/DTD/sodipodi-0.dtd"
   xmlns:inkscape="http://www.inkscape.org/namespaces/inkscape"
   width="148.89746mm"
   height="103.3975mm"
   viewBox="0 0 527.58943 366.36909"
   id="svg4245"
   version="1.1"
   inkscape:version="0.91 r13725"
   sodipodi:docname="station_chief.svg">
  <defs
     id="defs4247" />
  <sodipodi:namedview
     id="base"
     pagecolor="#ffffff"
     bordercolor="#666666"
     borderopacity="1.0"
     inkscape:pageopacity="0.0"
     inkscape:pageshadow="2"
     inkscape:zoom="0.98994949"
     inkscape:cx="241.76141"
     inkscape:cy="104.75401"
     inkscape:document-units="px"
     inkscape:current-layer="layer1"
     showgrid="false"
     inkscape:window-width="1366"
     inkscape:window-height="706"
     inkscape:window-x="-8"
     inkscape:window-y="-8"
     inkscape:window-maximized="1" />
  <metadata
     id="metadata4250">
    <rdf:RDF>
      <cc:Work
         rdf:about="">
        <dc:format>image/svg+xml</dc:format>
        <dc:type
           rdf:resource="http://purl.org/dc/dcmitype/StillImage" />
        <dc:title />
      </cc:Work>
    </rdf:RDF>
  </metadata>
  <g
     inkscape:label="Layer 1"
     inkscape:groupmode="layer"
     id="layer1"
     transform="translate(0,-685.99311)"
     style="display:inline">
    <rect
       style="fill:#ffccaa;fill-opacity:1;stroke:none;stroke-width:2.70000005;stroke-miterlimit:4;stroke-dasharray:none;stroke-opacity:1"
       id="rect4793"
       width="526.28949"
       height="365.67523"
       x="1.0101526"
       y="686.68695" />
  </g>
  <g
     inkscape:groupmode="layer"
     id="layer8"
     inkscape:label="Layer 8">
    <path
       style="fill:none;fill-rule:evenodd;stroke:#00ffff;stroke-width:4;stroke-linecap:butt;stroke-linejoin:miter;stroke-miterlimit:4;stroke-dasharray:none;stroke-opacity:1"
       d="m 187.74414,254.575 c -0.13514,9.42523 -0.65721,18.91532 2.62593,27.82906 3.7303,11.3212 8.27675,22.77622 16.02292,32.00525 7.6835,6.67561 18.59243,7.98558 28.07069,10.45233 18.69039,2.30581 37.53996,1.16119 56.31602,1.43418 10.50712,-3.42988 23.28481,-5.16979 33.69803,-8.78952 8.44493,-5.22275 16.20954,-9.72041 22.7929,-17.50283 6.40395,-7.0297 15.16524,-13.90212 15.15807,-24.36163 0.15827,-10.42249 0.45823,-20.88706 -1.06491,-31.22196 1.01711,-7.9825 -0.40963,-15.70711 -1.78497,-23.44484 -0.48011,-7.98731 0.14198,-15.987 -0.10875,-23.97873 -10.08356,-1.15478 -17.99379,6.97146 -27.80691,7.6471 -14.30876,3.05207 -28.60455,6.66051 -42.25016,11.90581 -6.90361,3.60376 -13.13815,8.71284 -20.83933,10.5603 -15.06193,7.07439 -29.63953,15.21745 -45.05764,21.48963 -8.47252,3.09693 -17.62556,4.87354 -26.64816,3.70695 -2.9209,1.10408 -5.88517,2.7653 -9.12373,2.2689 z"
       id="path5048"
       inkscape:connector-curvature="0"
       sodipodi:nodetypes="ccccccccccccccccc" />
    <text
       xml:space="preserve"
       style="font-style:normal;font-weight:normal;font-size:40px;line-height:125%;font-family:sans-serif;letter-spacing:0px;word-spacing:0px;fill:#000000;fill-opacity:1;stroke:#000080;stroke-width:0.40000001;stroke-linecap:butt;stroke-linejoin:miter;stroke-miterlimit:4;stroke-dasharray:none;stroke-opacity:1"
       x="126.26907"
       y="54.231945"
       id="text5071"
       sodipodi:linespacing="125%"><tspan
         sodipodi:role="line"
         id="tspan5073"
         x="126.26907"
         y="54.231945"
         style="font-style:normal;font-variant:normal;font-weight:normal;font-stretch:normal;font-size:25px;font-family:'OCR A Extended';-inkscape-font-specification:'OCR A Extended';fill:#00ffff;stroke:#000080;stroke-width:0.40000001;stroke-miterlimit:4;stroke-dasharray:none">U.N. Station Chief</tspan></text>
  </g>
  <g
     inkscape:groupmode="layer"
     id="layer4"
     inkscape:label="Layer 4"
     style="display:inline" />
  <g
     inkscape:groupmode="layer"
     id="layer2"
     inkscape:label="Layer 2"
     style="display:inline" />
  <g
     inkscape:groupmode="layer"
     id="layer3"
     inkscape:label="Layer 3"
     style="display:inline" />
  <g
     inkscape:groupmode="layer"
     id="layer5"
     inkscape:label="Layer 5"
     style="display:inline">
    <g
       id="g5019"
       transform="translate(16.162441,-22.020305)">
      <path
         inkscape:connector-curvature="0"
         id="path4898"
         d="m 169.17943,219.94506 -44.28571,15 c 0,0 -6.07143,0.71429 -8.92857,3.92858 -2.85715,3.21428 -6.42857,3.57142 -5.71429,7.5 0.71429,3.92857 0.35714,6.42857 3.21429,9.28571 2.85714,2.85714 80.35714,43.57143 80.35714,43.57143 0,0 2.85714,1.42857 12.5,4.28571 9.64286,2.85715 12.85714,4.28572 24.28571,5 11.42858,0.71429 72.85715,3.92857 84.28572,2.5 11.42857,-1.42857 30.71428,-3.92857 42.85714,-8.92857 12.14286,-5 21.78572,-9.64286 32.85714,-18.57143 11.07143,-8.92857 15.35715,-10 17.14286,-16.07143 1.78572,-6.07142 2.85714,-7.5 1.42857,-13.92857 -1.42857,-6.42857 -1.42857,-5.71428 -8.57143,-12.14285 -7.14285,-6.42858 -33.21428,-24.28572 -33.21428,-24.28572 l -20,-11.42857 -75,8.21429 z"
         style="display:inline;fill:#800000;fill-rule:evenodd;stroke:#df0000;stroke-width:1px;stroke-linecap:butt;stroke-linejoin:miter;stroke-opacity:1" />
      <path
         sodipodi:nodetypes="csscccccc"
         inkscape:connector-curvature="0"
         id="path4888"
         d="m 247.85715,126.19051 c 0,0 1.33928,0.71428 3.39285,0.625 2.05358,-0.0893 0.80358,0.26785 2.05358,-0.0893 1.25,-0.35714 2.32142,-0.89286 2.32142,-0.89286 l 9.5008,10.46933 9.46027,10.24047 -19.67535,16.07592 -7.32143,-33.21429 z"
         style="display:inline;fill:#d40000;fill-rule:evenodd;stroke:#eb0000;stroke-width:1px;stroke-linecap:butt;stroke-linejoin:miter;stroke-opacity:1" />
      <path
         sodipodi:nodetypes="ccccscccssccsccccsccsccscc"
         inkscape:connector-curvature="0"
         id="path4890"
         d="m 238.92858,127.79765 5.26785,-2.76786 c 0,0 0.26786,0 1.07143,-0.26785 0.80357,-0.26786 0.82655,-0.27104 1.67476,-0.31567 l 0.82524,0.67281 c 0,1.78571 -0.0893,4.28572 -0.0893,4.28572 l 7.23214,33.12499 -5.55097,4.88256 c 0,0 -2.79586,0.83685 -4.81617,6.89776 -1.08406,3.25219 -1.68072,6.4387 -1.50439,9.19016 0.15229,2.37628 1.01726,4.56419 1.01726,4.56419 l 3.89268,52.79317 c 0,0 -1.51523,0.50507 0.25253,4.04061 1.76777,3.53553 6.31346,7.3236 6.31346,7.3236 l 4.54568,3.03046 -26.01142,-1.76777 -23.23351,-4.29315 c 0,0 -1.01016,0 -9.59645,-3.53553 -8.5863,-3.53553 -8.83884,-3.03046 -8.83884,-3.03046 l -0.25254,-27.52665 c 0,0 -0.25253,-12.37437 1.76777,-21.21321 2.02031,-8.83883 10.35407,-26.76904 10.35407,-26.76904 l 10.10152,-15.65736 c 0,0 2.02031,-3.53554 7.82868,-8.83884 5.80838,-5.3033 17.7485,-14.82264 17.7485,-14.82264 z"
         style="display:inline;fill:#d40000;fill-rule:evenodd;stroke:#e40000;stroke-width:1px;stroke-linecap:butt;stroke-linejoin:miter;stroke-opacity:1" />
      <path
         inkscape:connector-curvature="0"
         id="path4892"
         d="m 164.86408,222.67488 1.01015,-23.48605 c 0,0 0,1.26269 1.01015,-6.81853 1.01016,-8.08122 5.3033,-22.22335 5.3033,-22.22335 0,0 0,-1.01016 3.03046,-6.81853 3.03046,-5.80838 5.05077,-10.10153 10.10153,-15.15229 5.05076,-5.05076 11.36421,-10.85914 15.9099,-13.63706 4.54569,-2.77792 17.67767,-10.6066 26.26397,-12.37437 8.58629,-1.76777 8.58629,-2.27284 8.58629,-2.0203 0,0.25253 3.03046,4.04061 3.03046,4.04061 l 2.52538,2.27284 -6.56599,4.54569 c 0,0 1.76777,-0.50508 -4.54569,4.04061 -6.31345,4.54568 -15.40482,14.39467 -15.40482,14.39467 l -9.34391,12.87945 c 0,0 1.01015,-2.02031 -2.27285,5.3033 -3.28299,7.3236 -7.3236,16.66751 -7.3236,16.66751 l -4.04061,16.16244 -1.26269,17.67767 0.50507,24.4962 -8.33376,-3.78807 -11.36421,-6.31345 -5.80838,-5.80838 z"
         style="display:inline;fill:#d40000;fill-rule:evenodd;stroke:#ea0000;stroke-width:1px;stroke-linecap:butt;stroke-linejoin:miter;stroke-opacity:1" />
      <path
         sodipodi:nodetypes="cccsscccsccscccscccccsc"
         inkscape:connector-curvature="0"
         id="path4849-7"
         d="m 248.611,245.7211 -3.8367,-32.9567 -0.67993,-25.35743 c 0,0 -4.4864,-10.53954 3.38841,-18.07916 0.41162,-0.3941 4.40926,-4.01019 4.84752,-4.4179 8.21544,-7.64275 17.63091,-14.50524 17.63091,-14.50524 l 14.77738,-12.72596 6.74093,-13.2628 c 0,0 1.39122,-4.22624 4.17365,-2.61624 2.78244,1.60998 9.93728,9.25746 9.93728,9.25746 l 18.68207,9.25748 c 0,0 0.39751,-0.40249 5.16739,5.63498 4.7699,6.03748 7.94982,19.72244 7.94982,19.72244 l 4.76989,20.52745 5.56488,25.75992 c 0,0 2.38495,6.43998 1.58998,11.67247 -0.79499,5.23249 -4.57116,7.84873 -4.57116,7.84873 l -19.47706,11.26997 -26.03566,9.86123 -19.47707,2.81749 -14.30968,1.2075 c 0,0 -1.37104,0.0454 -8.12838,-2.77213 -6.75736,-2.8175 -8.70447,-8.14356 -8.70447,-8.14356 z"
         style="display:inline;fill:#800000;fill-rule:evenodd;stroke:#d30000;stroke-width:1.119964px;stroke-linecap:butt;stroke-linejoin:miter;stroke-opacity:1" />
      <path
         sodipodi:nodetypes="ccscccsc"
         inkscape:connector-curvature="0"
         id="path4884"
         d="m 261.50324,121.28082 3.91434,0.25254 c 0,0 16.92006,3.28299 20.32932,5.6821 3.40927,2.39912 2.90419,2.39912 2.90419,2.39912 l -4.04061,8.08122 -21.46574,-12.87945 c 0,0 -2.65166,-1.26269 -2.39912,-2.52538 0.25254,-1.26269 0.75762,-1.01015 0.75762,-1.01015 z"
         style="display:inline;fill:#d40000;fill-rule:evenodd;stroke:#cf0000;stroke-width:1px;stroke-linecap:butt;stroke-linejoin:miter;stroke-opacity:1" />
      <path
         sodipodi:nodetypes="ccscccccc"
         inkscape:connector-curvature="0"
         id="path4886"
         d="m 274.63522,146.85031 -18.34599,-20.38348 c 0,0 -0.34183,-0.51406 -0.34183,-1.65048 0,-1.13642 1.76777,-1.76777 1.76777,-1.76777 0,0 1.38896,-0.12626 1.6415,0 0.25253,0.12627 6.31345,3.283 6.31345,3.283 l 18.94036,11.36422 -5.42957,5.42956 z"
         style="display:inline;fill:#d40000;fill-rule:evenodd;stroke:#e50000;stroke-width:1px;stroke-linecap:butt;stroke-linejoin:miter;stroke-opacity:1" />
      <path
         sodipodi:nodetypes="csscsccscscscccccscccc"
         inkscape:connector-curvature="0"
         id="path4896"
         d="m 164.54977,221.63829 c 0,0 -4.28571,0 -2.85714,5 1.42857,5 0.35714,5.35714 5.71428,11.42857 5.35715,6.07143 26.78572,17.14285 26.78572,17.14285 0,0 17.85714,8.57143 23.57143,9.28572 5.71428,0.71428 32.5,3.57143 32.5,3.57143 l 25.35714,0 c 0,0 27.47099,-2.43962 32.5,-4.28571 L 336.33549,253.424 c 0,0 7.85714,0 14.28571,-21.42858 0.87682,-2.92273 -3.21429,-22.14285 -3.21429,-22.14285 l 1.42858,15.35714 c 0.50385,5.41646 -19.64286,15.35715 -19.64286,15.35715 l -31.07143,12.5 -32.85714,3.21428 -8.03571,-1.60714 -10.17858,-1.25 c 0,0 -12.71374,-0.83837 -19.46428,-0.89286 -6.49533,-0.0524 -40.35714,-11.96428 -40.35714,-11.96428 l -14.10715,-7.5 -7.85714,-7.14286 z"
         style="display:inline;fill:none;fill-rule:evenodd;stroke:#dc0000;stroke-width:1px;stroke-linecap:butt;stroke-linejoin:miter;stroke-opacity:1" />
      <path
         sodipodi:nodetypes="cccscccsccscccscccccsc"
         inkscape:connector-curvature="0"
         id="path4849"
         d="m 256.08386,238.03964 -3.92858,-27.50001 -2.85715,-22.5 c 0,0 -0.35713,-4.64285 5.35715,-12.5 5.7143,-7.85714 20.35716,-19.64285 20.35716,-19.64285 l 12.14285,-10.35715 6.96429,-13.39285 c 0,0 1.25,-3.75 3.75,-2.32143 2.5,1.42857 8.92857,8.21428 8.92857,8.21428 l 16.78571,8.21429 c 0,0 0.35715,-0.35714 4.64286,5 4.28572,5.35714 7.14286,17.5 7.14286,17.5 l 4.28571,18.21428 5,22.85715 c 0,0 2.14286,5.71428 1.42858,10.35714 -0.71429,4.64286 -4.10715,6.96429 -4.10715,6.96429 l -17.5,10 -23.39285,8.75001 -17.5,2.5 -12.85715,1.07143 c 0,0 -1.07143,0.35714 -7.14285,-2.14286 -6.07144,-2.5 -7.50001,-9.28572 -7.50001,-9.28572 z"
         style="display:inline;fill:#d40000;fill-rule:evenodd;stroke:#d30000;stroke-width:1px;stroke-linecap:butt;stroke-linejoin:miter;stroke-opacity:1" />
      <path
         sodipodi:nodetypes="ccscscsc"
         inkscape:connector-curvature="0"
         id="path4882"
         d="m 295.29291,129.81804 c -3.42744,6.02821 -1.38684,14.09799 -1.38684,14.09799 0,0 0.27395,2.94912 2.11457,6.98811 1.93104,4.23731 3.30747,2.94319 3.30747,2.94319 0,0 2.42576,1.22636 3.12816,-3.13505 0.70239,-4.36143 0.34677,-7.29237 0.34677,-7.29237 0,0 0.31459,-2.67023 -2.16317,-9.75773 -2.25176,-6.44094 -5.34696,-3.84414 -5.34696,-3.84414 z"
         style="display:inline;fill:#800000;fill-rule:evenodd;stroke:#e20000;stroke-width:1px;stroke-linecap:butt;stroke-linejoin:miter;stroke-opacity:1" />
      <path
         sodipodi:nodetypes="csccscscsc"
         inkscape:connector-curvature="0"
         id="path4894"
         d="m 235.10071,120.20859 c 0,0 -2.31617,-0.074 6.01759,-1.33666 8.33376,-1.26269 13.8896,-0.50507 13.8896,-0.50507 l 7.57614,2.52538 c 0,0 4.11343,5.03453 -0.78562,6.4999 l -4.15266,1.24212 c 0,0 -2.82169,0.93356 -6.50253,0.89286 -6.00239,-0.0664 -9.81835,0.6889 -9.81835,0.6889 0,0 -3.73468,0.85434 -7.01767,-3.94388 -3.283,-4.79823 0.7935,-6.06355 0.7935,-6.06355 z"
         style="display:inline;fill:#800000;fill-rule:evenodd;stroke:#e20000;stroke-width:1px;stroke-linecap:butt;stroke-linejoin:miter;stroke-opacity:1" />
    </g>
  </g>
  <g
     inkscape:groupmode="layer"
     id="layer7"
     inkscape:label="Layer 7">
    <path
       style="fill:#00ffff"
       d="m 321.00143,205.67592 c 0.64684,-1.17385 1.73453,-2.60501 3.00869,-3.95882 0.83119,-0.88315 1.39276,-1.66383 1.24791,-1.73486 -0.14492,-0.071 -0.83553,-0.12357 -1.5348,-0.11701 -0.99342,0.01 -1.66477,0.23964 -3.06999,1.05302 -3.89997,2.25691 -4.7964,2.62879 -7.32729,3.03972 -2.45329,0.39841 -2.51399,0.39318 -4.56554,-0.39254 -1.14359,-0.4377 -2.11019,-0.89313 -2.14804,-1.01158 -0.0377,-0.11851 0.6034,-0.19598 1.42498,-0.17189 1.74423,0.0503 4.6537,-0.60724 6.18455,-1.39752 1.45187,-0.74968 6.23677,-2.00884 7.45632,-1.96219 0.54229,0.0208 1.78993,0.18518 2.77276,0.36635 1.64919,0.30302 1.82881,0.28754 2.33123,-0.20157 1.48566,-1.4463 5.4838,-2.15007 9.9821,-1.75712 3.2123,0.28062 7.16085,-0.0197 8.26646,-0.62864 0.48691,-0.26821 0.48858,-0.2509 0.0512,0.53054 -0.2488,0.44431 -1.03147,1.16283 -1.73938,1.5967 -2.34681,1.43832 -5.62288,1.52804 -11.33886,0.31054 -1.96208,-0.41792 -3.97173,-0.30428 -5.04709,0.28537 -0.46862,0.25695 -0.38909,0.32479 1.13961,0.97254 0.90386,0.38299 2.68466,1.2871 3.95734,2.00909 2.13721,1.21247 2.26831,1.32641 1.71651,1.49179 -0.48108,0.14415 -1.02972,-0.12964 -2.81758,-1.40676 -1.22114,-0.8722 -2.82392,-1.80757 -3.56171,-2.07859 l -1.34153,-0.49276 -1.07153,1.07322 c -0.58932,0.59029 -1.46972,1.87926 -1.95646,2.8644 -0.64458,1.30468 -1.05837,1.81644 -1.52354,1.88434 -0.35703,0.0518 -0.57582,-0.0204 -0.49621,-0.1652 z m 17.72692,-9.33764 c -0.97181,0.0118 -1.85471,9.7e-4 -1.96236,-0.0236 -0.33534,-0.0773 2.48065,-11.76989 2.97623,-12.35784 0.27028,-0.32065 0.56498,0.89401 0.74525,3.07162 0.18595,2.2455 -0.41463,5.51051 -1.28529,6.98903 -0.30382,0.51586 -0.43849,0.92126 -0.29901,0.90099 0.64535,-0.0942 4.42864,-2.22836 6.17298,-3.4822 1.06662,-0.76667 2.11269,-1.51815 2.32464,-1.67001 0.25417,-0.18213 0.20418,0.16601 -0.14681,1.02255 -1.5812,3.85831 -4.09584,5.49516 -8.5253,5.54942 z m -32.09808,4.19631 c -1.53514,-0.35074 -4.85069,-2.08849 -5.75581,-3.01676 -0.2944,-0.30192 -0.5199,-0.58346 -0.50107,-0.62566 0.0194,-0.0422 1.01685,0.17082 2.2178,0.47328 2.23357,0.5625 7.1551,1.57156 8.4839,1.73936 0.70579,0.0889 0.65734,0.0272 -1.03969,-1.32733 -0.97898,-0.78147 -2.15291,-1.85001 -2.60866,-2.37454 -1.30153,-1.49779 -3.00088,-4.1372 -3.3332,-5.17704 -0.27011,-0.84526 -0.25,-0.91334 0.1853,-0.62804 1.28214,0.83983 9.96547,9.70455 9.82159,10.02683 -0.0447,0.0999 -1.41607,0.42035 -3.04777,0.7121 -2.44895,0.43782 -3.22072,0.4726 -4.42254,0.19737 z m 13.40838,-5.61498 c -7.95345,-0.7697 -15.74641,-6.4275 -20.54464,-14.91578 -0.41507,-0.7343 -1.24481,-2.52655 -1.84383,-3.98288 -3.95141,-9.60588 -2.65378,-19.71639 3.22565,-25.13383 6.40349,-5.90035 16.21424,-5.22489 24.60158,1.69377 5.02371,4.144 8.33308,9.09449 10.38006,15.52768 1.62398,5.10389 1.91751,9.1203 0.98764,13.51648 -1.60237,7.57558 -6.27936,12.25286 -13.1742,13.17494 -1.12413,0.15043 -2.75865,0.20412 -3.63228,0.11961 z m 3.12959,-2.648 -0.60545,-2.10914 -1.68107,0.0527 c -3.03648,0.0953 -6.3596,-0.92247 -9.71244,-2.97447 l -1.64605,-1.00748 -0.73714,1.70106 -0.73715,1.70102 1.20929,0.82007 c 2.00315,1.35846 4.23215,2.46128 6.4173,3.1751 2.32707,0.76018 5.87408,1.22172 7.21111,0.93829 l 0.8871,-0.18812 -0.60544,-2.10912 z m 5.28493,0.66764 c 2.97574,-1.61546 5.34314,-4.06129 6.4541,-6.66792 l 0.53586,-1.25721 -1.69365,-1.32334 -1.69365,-1.32337 -0.82367,1.56722 c -1.44752,2.75429 -5.12553,5.60248 -7.75319,6.00398 l -0.73375,0.11235 0.7163,2.24146 0.71631,2.24146 1.42948,-0.41271 c 0.78619,-0.227 2.06685,-0.75876 2.84589,-1.18168 z m -6.66858,-5.15336 -0.64606,-2.0217 -1.85968,-0.0765 c -2.02794,-0.0834 -4.61512,-0.89514 -6.3802,-2.00196 -0.61842,-0.38778 -1.31763,-0.67686 -1.55383,-0.64235 -0.23621,0.0353 -0.7019,0.69112 -1.03496,1.45929 l -0.60556,1.39658 0.89273,0.5825 c 3.76972,2.45981 7.96615,3.73021 11.20347,3.39172 l 0.63022,-0.066 -0.64607,-2.02172 z m 4.65464,0.51245 c 1.82584,-1.07699 3.55288,-2.8568 4.47343,-4.61005 l 0.78443,-1.49403 -1.45285,-1.29292 c -1.54316,-1.37331 -2.21379,-1.48676 -1.94652,-0.32938 0.65131,2.82024 0.67428,4.08059 0.0957,5.242 -0.3229,0.64814 -0.7627,1.20571 -0.97736,1.23904 -0.8065,0.12558 -2.41023,-0.55553 -3.04881,-1.29413 -0.68679,-0.79432 -1.12478,-0.85622 -2.36024,-0.33359 l -0.65187,0.27581 0.66103,2.06854 0.66104,2.06849 1.22985,-0.38587 c 0.67644,-0.21223 1.81589,-0.73152 2.53208,-1.15397 z m 3.16036,-5.10432 c -0.36784,-0.33154 -0.45246,-1.94171 -0.12263,-2.33305 0.26348,-0.31256 0.7781,0.68642 0.78456,1.52301 0.007,0.92321 -0.22345,1.20533 -0.66197,0.81004 z m -21.77133,1.46571 c -0.76362,-0.73372 -1.95286,-2.06192 -2.64277,-2.95156 -1.32148,-1.7041 -2.32308,-2.41273 -3.22428,-2.2812 -1.04436,0.15249 -1.60192,-2.19787 -0.70342,-2.96507 0.42862,-0.36599 0.41999,-0.52089 -0.11008,-1.97482 l -0.57517,-1.57766 -1.81329,0.17946 -1.81332,0.17956 0.95119,2.54774 c 1.59072,4.26058 4.23546,8.20587 7.88361,11.76019 l 1.90234,1.85341 0.76678,-1.71796 0.76682,-1.71799 -1.3884,-1.334 z m 28.65738,-3.09535 c 0.27785,-1.3299 0.51212,-3.39242 0.5205,-4.58338 0.0166,-2.35818 -0.51867,-6.17288 -1.13804,-8.11103 l -0.39109,-1.22383 -1.72771,0.33656 -1.72769,0.33651 0.51874,2.138 c 0.85982,3.54387 0.86019,7.52191 9e-4,10.45318 l -0.33857,1.15473 1.68154,1.3139 c 1.31897,1.03063 1.72624,1.23726 1.88885,0.95857 0.11409,-0.19542 0.43474,-1.44341 0.71257,-2.7733 z m -15.90828,2.44381 c -0.23429,-0.73323 -0.45386,-1.0899 -0.65296,-1.06085 -0.4426,0.0646 -1.58734,-0.94885 -2.05788,-1.82178 -0.30671,-0.56908 -0.70503,-0.85673 -1.57623,-1.1383 -0.64117,-0.20722 -1.63048,-0.65797 -2.19842,-1.0016 l -1.03268,-0.6248 -0.43576,0.97633 c -0.43261,0.96926 -0.431,0.98167 0.21422,1.72802 0.59247,0.68526 0.63068,0.79503 0.4319,1.24045 -0.11997,0.26872 -0.38813,0.51633 -0.59594,0.55019 -0.29414,0.0483 -0.21337,0.16623 0.36538,0.53462 1.93854,1.23385 5.07649,2.09269 6.81194,1.86437 l 1.07947,-0.14203 -0.35303,-1.10465 z m 2.73988,0.48951 c 0.20052,-0.24461 0.14749,-0.42696 -0.32254,-1.10467 -0.50782,-0.73249 -0.65937,-0.79758 -1.5534,-0.66716 l -0.99069,0.1446 0.35302,1.10462 0.353,1.10465 0.96025,-0.14452 c 0.52811,-0.0797 1.06831,-0.2764 1.20041,-0.43757 z m -13.34799,-0.17653 c 0.40223,-0.94595 0.39654,-1.02493 -0.0898,-1.26609 -0.28548,-0.14145 -0.96414,-0.3308 -1.50818,-0.42076 -0.54405,-0.0899 -1.56745,-0.58061 -2.27421,-1.09032 -0.7068,-0.50971 -1.25905,-0.84534 -1.22726,-0.74582 0.086,0.2693 2.50194,2.99507 3.40165,3.83798 0.43029,0.40316 0.89186,0.72421 1.02567,0.71349 0.1336,-0.0108 0.43641,-0.47354 0.67235,-1.02843 z m 22.36188,-4.18105 c 0.74919,-3.02639 0.52289,-8.68929 -0.43881,-10.98373 -0.32038,-0.76466 -0.33643,-0.76913 -1.90697,-0.53988 l -1.58376,0.231 0.41253,1.81855 c 0.51125,2.2539 0.58013,4.78313 0.1871,6.86564 l -0.30002,1.58943 1.39655,1.1838 c 0.76812,0.65108 1.51059,1.18039 1.64999,1.1762 0.13916,-0.004 0.40202,-0.60768 0.58357,-1.34119 z m -4.58513,-1.2778 c -0.48043,-0.37141 -0.63604,-0.0232 -0.24941,0.55882 0.22824,0.34348 0.33775,0.36482 0.46051,0.0897 0.12282,-0.27504 0.0726,-0.42928 -0.21084,-0.64861 z m 0.91406,-1.72474 c 0.38118,-2.12401 0.27022,-4.75217 -0.28313,-6.71022 l -0.42783,-1.51365 -1.14596,0.11899 c -0.63028,0.066 -0.94837,0.15392 -0.70677,0.19661 0.76226,0.13472 0.73433,0.88848 -0.0546,1.47115 -0.65003,0.48009 -0.75057,0.76221 -0.69634,1.95374 0.035,0.76593 -0.008,1.47727 -0.0947,1.58072 -0.0873,0.10347 -0.0498,0.52875 0.0834,0.94509 0.13303,0.41633 0.17767,0.90065 0.0994,1.07629 -0.0982,0.21972 0.0164,0.28868 0.36666,0.2211 0.38073,-0.0735 0.58405,0.0727 0.80624,0.58097 0.23735,0.54293 1.44827,1.8119 1.69463,1.77595 0.031,-0.005 0.19252,-0.76807 0.35929,-1.6968 z m -11.03072,1.53266 c 0.22359,-0.68258 0.27016,-1.24905 0.10845,-1.32829 -0.43485,-0.21314 -0.57805,-0.92807 -0.19673,-0.98368 0.59409,-0.0868 0.10523,-0.86382 -0.60201,-0.95755 -0.37402,-0.0495 -1.02246,-0.24534 -1.44104,-0.43523 -0.75202,-0.34114 -0.7693,-0.32707 -1.45793,1.1806 -0.38335,0.83918 -0.65552,1.65467 -0.60501,1.81224 0.13376,0.41639 3.00904,1.89998 3.68579,1.90176 0.0653,4.1e-4 0.29415,-0.53522 0.50885,-1.18974 z m -5.44877,-1.19785 c -1.47481,-1.58722 -2.02934,-2.34481 -2.79614,-3.82006 -0.85664,-1.64822 -1.60669,-2.27927 -1.2013,-1.01071 0.35114,1.09877 -0.13399,0.90371 -0.73123,-0.294 -0.41654,-0.83531 -0.58722,-1.00514 -0.77932,-0.77537 -0.19658,0.23506 -0.16392,0.36806 0.16239,0.66213 0.62381,0.56218 1.794,2.61385 3.1423,5.50924 0.2408,0.5171 0.75795,1.25557 1.14925,1.64109 l 0.71147,0.70095 0.46404,-0.99158 c 0.44841,-0.95821 0.44431,-1.0128 -0.12163,-1.62171 z m 8.27411,-0.51721 c 0.48944,-0.5163 0.2792,-0.64037 -1.09501,-0.64652 -0.5535,-0.002 -0.83362,0.16678 -0.99259,0.59904 -0.21522,0.58494 -0.205,0.59574 0.35597,0.37171 0.31759,-0.12709 0.61167,-0.1237 0.65359,0.007 0.11052,0.34576 0.57019,0.20444 1.07813,-0.3313 z m -6.7475,-1.01136 0.72591,-1.65801 -0.87744,-1.11715 c -0.73362,-0.93394 -0.88808,-1.03608 -0.94189,-0.62284 -0.0684,0.52826 -0.66394,0.76733 -0.80577,0.3236 -0.11127,-0.34847 -1.09303,-0.75258 -2.12667,-0.87544 l -0.82373,-0.098 0.51342,1.09837 c 0.77383,1.65548 3.05115,4.67256 3.48838,4.62155 0.0673,-0.009 0.44861,-0.7603 0.84784,-1.67212 z m 3.35007,-1.19088 c -0.10006,-0.11217 -0.14612,-0.39818 -0.10219,-0.63539 0.0659,-0.35787 0.10586,-0.34911 0.23765,0.0518 0.0869,0.2655 0.25971,0.46792 0.38418,0.44975 0.12437,-0.0179 0.11022,-0.39565 -0.0313,-0.83891 -0.37145,-1.16239 -0.3217,-1.71093 0.16162,-1.7815 0.5766,-0.0842 0.73786,-2.01547 0.25646,-3.07238 -0.2036,-0.4472 -0.5103,-1.14395 -0.68144,-1.54834 -0.39531,-0.93412 -1.7069,-2.27161 -2.41233,-2.45997 -0.47089,-0.12569 -0.61646,-0.37539 -1.11403,-1.91046 -0.52615,-1.62311 -0.61627,-1.76689 -1.11525,-1.77979 -0.87976,-0.023 -2.41171,1.11683 -3.03386,2.2567 l -0.57793,1.05888 0.69391,0.19661 c 0.73501,0.20832 2.08302,-0.32729 2.1765,-0.86458 0.0843,-0.48393 0.59749,-0.39872 1.49025,0.24735 l 0.85455,0.61841 -0.74196,1.47817 c -0.66873,1.33214 -0.70502,1.594 -0.36735,2.65074 0.30953,0.96861 0.29311,1.33247 -0.0947,2.09191 -0.30568,0.59865 -0.34804,0.90166 -0.12177,0.86862 0.19131,-0.0274 0.51233,-0.66007 0.71346,-1.40481 0.20107,-0.74473 0.42452,-1.35971 0.49536,-1.36658 0.0712,-0.008 0.45946,0.18848 0.86264,0.43412 0.66911,0.40766 0.73377,0.5255 0.74198,1.35158 0.005,0.49772 0.12133,1.07415 0.25886,1.28098 0.15255,0.22959 0.10825,0.39672 -0.11371,0.42909 -0.19984,0.0284 -0.40646,-0.0813 -0.45886,-0.24501 -0.0872,-0.27312 -1.21585,0.047 -1.57168,0.44593 -0.21084,0.23633 1.03046,1.43067 1.94776,1.87406 0.87003,0.4206 1.59103,0.49109 1.26323,0.12347 z m 7.89356,-1.96441 c 0.0124,-0.57541 -0.0526,-1.10441 -0.14502,-1.17562 -0.0922,-0.0712 -0.433,0.38287 -0.75773,1.009 -0.32469,0.62607 -0.49428,1.12429 -0.3768,1.10718 0.11733,-0.017 0.23675,-0.16466 0.26511,-0.32778 0.078,-0.44822 0.45991,-0.41342 0.60979,0.0555 0.22194,0.69446 0.38055,0.43231 0.40438,-0.66833 z m -20.97501,1.13716 c 0.0454,-0.67289 0.0855,-1.32426 0.0904,-1.44764 0.004,-0.12334 -0.71387,-0.11878 -1.59533,0.01 l -1.60262,0.2338 0.47926,1.49969 c 0.42877,1.34172 0.53618,1.50231 1.02,1.52464 0.9961,0.0457 1.52293,-0.55027 1.60871,-1.82038 z m 4.07534,-3.03307 c -0.13103,-0.67275 -0.93592,-1.00188 -1.14954,-0.47011 -0.10322,0.25654 -0.0534,0.37929 0.18042,0.4408 0.17781,0.047 0.38284,0.2717 0.45564,0.49953 0.19539,0.61136 0.64407,0.20043 0.51346,-0.4703 z m -7.98106,-0.14998 c -0.838,-3.50134 -0.68541,-7.52936 0.39887,-10.52768 l 0.46445,-1.2841 -1.69935,-1.29976 -1.69941,-1.29975 -0.37599,0.76142 c -0.57263,1.15969 -1.36088,5.30369 -1.40613,7.39244 -0.0527,2.43007 0.31625,5.8163 0.79782,7.32322 l 0.38301,1.19856 1.77733,-0.25941 1.77727,-0.2593 -0.41773,-1.74554 z m 3.85448,0.42921 c -0.60804,-1.90265 -0.54789,-5.22254 0.14126,-7.79255 0.23086,-0.86152 0.37804,-1.66339 0.327,-1.78197 -0.0516,-0.11856 -0.78227,-0.70033 -1.6247,-1.29276 l -1.53174,-1.07714 -0.48324,1.37122 c -0.95025,2.69628 -1.06631,8.42724 -0.22421,11.0626 l 0.25065,0.78429 1.6969,-0.24752 1.69688,-0.24772 -0.24871,-0.77835 z m 1.6584,-1.08937 c -0.26933,-3.11217 0.26567,-4.86205 1.6765,-5.48477 l 0.60756,-0.26814 -1.44947,-1.17384 c -1.67783,-1.35877 -1.68562,-1.35422 -2.24693,1.30995 -0.36159,1.71586 -0.36282,4.30787 -0.003,6.40148 0.17711,1.03084 0.19869,1.05485 0.86954,0.957 0.6442,-0.0941 0.67886,-0.20459 0.54567,-1.74167 z m 21.89423,-2.61745 c -1.29224,-2.77178 -3.54397,-5.86834 -4.70799,-6.47446 -0.38536,-0.20064 -0.65766,-0.50526 -0.63242,-0.70745 0.0244,-0.19526 -0.16808,0.096 -0.42747,0.64729 l -0.4717,1.00234 0.71042,0.69706 c 0.42656,0.41854 0.98464,0.69614 1.39667,0.69473 0.92473,-0.003 1.44075,0.37012 1.48096,1.07124 0.0272,0.46911 0.0975,0.52945 0.38115,0.32469 0.33364,-0.24104 0.33835,-0.22586 0.11268,0.36603 -0.12922,0.33959 -0.39105,0.71242 -0.58176,0.82849 -0.42525,0.25885 -0.23019,1.75751 0.31733,2.43305 0.32125,0.39666 0.65085,0.45942 1.64826,0.31406 l 1.24663,-0.18187 -0.47312,-1.01489 z m 3.55432,-0.8078 c -0.80484,-1.8221 -2.0532,-3.97938 -3.30871,-5.71762 -1.01232,-1.40153 -1.11287,-1.47572 -1.67709,-1.23703 -0.48924,0.207 -0.83083,0.0907 -1.84859,-0.62928 -1.00444,-0.71061 -1.29109,-0.81006 -1.46688,-0.5088 -0.25011,0.42866 -0.002,1.42817 0.34252,1.37796 0.36316,-0.0526 1.61405,1.48845 1.67253,2.061 0.0653,0.63751 0.88409,1.69181 1.10793,1.42625 0.0898,-0.1064 0.0313,-0.65435 -0.12878,-1.2177 -0.24766,-0.86918 -0.23961,-0.90844 0.0528,-0.25933 0.18955,0.42074 0.356,1.11184 0.37007,1.53575 0.0173,0.53121 0.34902,1.41979 1.06668,2.85887 l 1.04134,2.08807 1.67287,-0.24405 1.67288,-0.24415 -0.56973,-1.28978 z m 3.67569,-1.06934 c -1.0604,-2.56951 -2.60888,-5.21533 -4.39893,-7.51519 -1.47173,-1.89083 -4.61859,-5.16022 -4.92391,-5.11564 -0.0779,0.0115 -0.41162,0.6079 -0.74122,1.32558 l -0.59929,1.30487 1.48989,1.16679 c 1.36896,1.07206 1.47192,1.20717 1.268,1.66405 -0.20397,0.45686 -0.12506,0.62264 0.97012,2.04168 1.32571,1.71757 3.25618,5.1206 3.70948,6.53909 l 0.2948,0.92239 1.83635,-0.268 1.83636,-0.268 -0.74139,-1.79757 z m -18.87038,-2.77197 c 0.13921,-0.50422 0.16204,-0.49902 0.35481,0.0818 0.22887,0.69005 0.40141,0.72146 1.12311,0.20454 0.35399,-0.25357 0.42976,-0.5559 0.26692,-1.06535 -0.26258,-0.82175 -1.20284,-1.20835 -3.06709,-1.26115 l -1.13506,-0.0322 0.52875,1.65461 0.52878,1.65461 0.62538,-0.34925 c 0.34397,-0.19211 0.69243,-0.5916 0.7744,-0.88772 z m -6.4581,0.14012 c 0.46178,-0.622 1.21769,-1.33295 1.67987,-1.57993 2.0239,-1.08156 1.90023,-0.81456 1.32415,-2.85925 l -0.52178,-1.85186 -0.71298,0.10404 c -1.76956,0.25825 -4.07821,1.89171 -5.33513,3.77483 l -0.66997,1.00372 1.62843,1.27983 c 0.89565,0.70388 1.65983,1.27519 1.69819,1.26958 0.0383,-0.006 0.44751,-0.51906 0.90927,-1.14101 z m 11.62947,-1.94797 0.58273,-1.34393 -0.95566,-0.63396 c -0.62641,-0.41555 -1.08618,-0.55452 -1.33449,-0.40336 -0.26905,0.16378 -0.71579,-0.0302 -1.54196,-0.66859 -1.30042,-1.00538 -2.57449,-1.40673 -4.45097,-1.40225 l -1.26569,0.003 0.62992,1.97115 0.62992,1.97116 0.68589,-0.10023 c 0.37731,-0.0554 1.37931,0.0624 2.2267,0.26107 0.84744,0.19867 1.6261,0.26 1.73032,0.13639 0.11413,-0.13566 0.1659,-0.089 0.13001,0.1175 -0.0367,0.20983 0.10024,0.32263 0.35255,0.29143 0.55875,-0.0692 1.34216,0.43535 1.36062,0.87613 0.032,0.76439 0.66368,0.20746 1.22003,-1.07564 z m -2.59351,-0.77713 c 0.0651,-0.14576 0.34047,-0.16562 0.61549,-0.0443 0.42828,0.18882 0.41183,0.22576 -0.11752,0.2639 -0.33975,0.0244 -0.56281,-0.074 -0.49791,-0.21952 z m 3.59263,-1.7593 c 0.30521,-0.48269 0.29894,-0.50522 -0.2102,-0.75497 -1.50012,-0.73598 -1.71474,-0.9544 -1.59518,-1.62334 0.15633,-0.87461 -0.16172,-1.03187 -1.00851,-0.49853 -0.394,0.24818 -0.76016,0.41213 -0.81366,0.36437 -0.0537,-0.0478 -0.48041,-0.81138 -0.94858,-1.69691 l -0.85126,-1.61 -1.39816,-0.32385 c -0.769,-0.1781 -2.10798,-0.29414 -2.97556,-0.25803 l -1.57736,0.0658 0.63332,1.98186 c 0.43165,1.35067 0.73312,1.99896 0.94654,2.03563 0.17224,0.0293 1.01566,0.0846 1.87422,0.12187 0.85855,0.0375 1.77551,0.13232 2.03771,0.21113 0.42873,0.12825 0.42623,0.0383 -0.0246,-0.89297 l -0.50141,-1.03564 1.22878,0.7705 c 0.67585,0.42379 1.29222,0.96889 1.36966,1.21129 0.15637,0.48932 2.8589,2.54668 3.25104,2.47493 0.13671,-0.0256 0.39016,-0.26936 0.56321,-0.54304 z m -16.48477,1.70193 c 1.27638,-1.71972 2.94429,-2.98569 4.55666,-3.45867 l 1.51557,-0.4446 -0.58577,-2.05281 -0.58573,-2.05281 -1.6016,0.39533 c -2.05933,0.50836 -4.46533,2.16725 -5.97676,4.12091 -0.64125,0.82886 -1.18985,1.64476 -1.21912,1.81307 -0.0434,0.24844 2.79804,2.72501 3.07912,2.68399 0.0444,-0.006 0.41242,-0.4585 0.81759,-1.00441 z m -0.52683,-6.21914 c 1.19907,-0.86975 3.89769,-2.05907 5.05566,-2.22808 0.12846,-0.0184 -0.0915,-0.91466 -0.53068,-2.1626 l -0.75007,-2.13062 -1.32562,0.29789 c -3.11178,0.69933 -6.50235,3.08582 -8.42679,5.93125 -0.69967,1.03455 -1.24344,1.97079 -1.20834,2.08057 0.0351,0.10981 0.78828,0.76569 1.67376,1.4576 l 1.61003,1.25799 1.20683,-1.71221 c 0.66376,-0.9417 1.87662,-2.19799 2.69517,-2.79177 z m 19.02359,-2.12095 c -1.14508,-0.94138 -4.00035,-2.51212 -5.94058,-3.26798 -1.92911,-0.75156 -1.99991,-0.76166 -1.64758,-0.23126 0.17266,0.25986 0.0809,0.52021 -0.27371,0.77394 -0.29358,0.21028 -0.59819,0.61423 -0.67691,0.89765 -0.12855,0.4615 -0.16992,0.43353 -0.4006,-0.26704 -0.20368,-0.61983 -0.13732,-0.86796 0.3213,-1.19416 0.31837,-0.22648 0.55308,-0.49244 0.52155,-0.59102 -0.11063,-0.34597 -3.1894,-0.72961 -4.98231,-0.62087 l -1.81148,0.10991 0.66624,2.08474 0.6662,2.08477 1.24421,0.003 c 1.58241,0.004 3.5684,0.22079 4.144,0.45196 0.3207,0.12898 0.43103,0.0381 0.39406,-0.32433 -0.0798,-0.77903 1.39927,-1.59799 2.31177,-1.28017 0.71163,0.24785 0.71502,0.2429 0.15416,-0.22849 -0.55222,-0.46414 -0.55636,-0.49066 -0.11147,-0.72104 0.59959,-0.3106 1.11834,0.0764 0.99607,0.74315 -0.0728,0.39828 0.0797,0.61215 0.75945,1.06307 0.64452,0.42754 0.92808,0.80597 1.16917,1.56037 0.22583,0.70678 0.56892,1.19688 1.1815,1.688 l 0.86322,0.69202 0.62005,-1.38918 0.62008,-1.38925 -0.78841,-0.64813 z m -20.18325,44.31786 c -4.98872,-1.50345 -9.62867,-4.84625 -11.16797,-8.04574 l -0.44389,-0.92271 1.94133,1.4373 c 1.79152,1.32638 8.39859,5.53204 8.6363,5.49733 0.0569,-0.009 -0.4181,-0.81695 -1.05597,-1.79694 -1.58008,-2.42743 -4.69642,-9.56614 -3.8789,-8.88554 0.49288,0.41034 3.85988,5.44672 5.19726,7.77409 1.4227,2.4758 2.73202,5.37617 2.42892,5.38045 -0.10652,0.002 -0.85226,-0.19571 -1.65705,-0.43824 z m 38.49149,-6.71883 c -0.64747,-3.16501 -0.97726,-8.1108 -0.7372,-11.05881 l 0.15209,-1.86697 0.67617,1.89063 c 0.70991,1.98493 1.28442,5.75404 1.27841,8.38685 l -0.003,1.38185 1.46427,-2.27001 c 0.80537,-1.24851 2.04915,-3.41458 2.76393,-4.8135 1.21765,-2.38308 1.30801,-2.48855 1.43219,-1.67193 0.37846,2.48858 -1.00038,6.48785 -2.97775,8.63705 -0.93823,1.01976 -3.12787,2.76791 -3.54275,2.82846 -0.11639,0.017 -0.33432,-0.60439 -0.50601,-1.44362 z m -46.56292,-1.18686 c -2.22147,-1.40636 -4.59919,-3.54963 -5.97664,-5.38735 -1.11895,-1.49279 -2.69104,-4.90825 -2.13335,-4.63487 0.30853,0.15125 1.89015,1.72873 5.68372,5.66879 l 2.0362,2.11486 -0.17996,-0.9406 c -0.0988,-0.5173 -0.43883,-1.93667 -0.75525,-3.15414 -0.71074,-2.73416 -1.03644,-5.86624 -0.53195,-5.1158 0.72413,1.07723 4.16915,12.53648 3.77778,12.56616 -0.0767,0.006 -0.94101,-0.49688 -1.92065,-1.11707 z m 48.98153,-7.3994 c -0.91239,-2.05718 -3.41185,-9.8883 -3.50537,-10.98228 -0.0716,-0.83924 -0.0536,-0.82445 0.89806,0.73603 0.57771,0.94731 1.44487,2.86446 2.14044,4.73195 l 1.16924,3.13943 0.64655,-1.95174 c 0.35558,-1.07348 0.87927,-3.06563 1.16378,-4.4271 0.28447,-1.36145 0.58374,-2.55427 0.66509,-2.65074 0.25929,-0.30759 0.75659,1.68143 0.86809,3.47195 0.0593,0.95193 -0.0659,2.40085 -0.27804,3.21974 -0.39368,1.51941 -1.70251,4.35058 -2.58397,5.58945 l -0.48986,0.68848 -0.69415,-1.56515 z m -54.1152,-0.92198 c -2.25494,-2.42235 -3.87147,-5.30289 -4.86111,-8.66223 -0.94774,-3.21696 -1.03218,-3.29642 2.80419,2.63839 1.34942,2.08756 2.47011,3.67991 2.49033,3.53857 0.0199,-0.14129 0.007,-0.77297 -0.0289,-1.40357 -0.078,-1.36231 0.24384,-5.28571 0.50399,-6.14344 0.17182,-0.56618 0.20514,-0.50636 0.5232,0.93527 0.47584,2.15707 0.64406,10.60059 0.21242,10.66359 -0.09,0.014 -0.82987,-0.69182 -1.64412,-1.56658 z m 52.89572,-9.15059 c -2.09543,-3.05376 -4.21348,-6.6847 -4.59403,-7.87552 l -0.21074,-0.65957 0.7851,0.70244 c 1.10047,0.98458 3.06504,3.5547 4.14242,5.41921 l 0.91018,1.57518 -0.0421,-2.15054 c -0.0232,-1.18282 -0.0429,-3.45116 -0.0438,-5.04075 l -0.002,-2.89018 0.98113,2.85773 c 0.71486,2.08233 1.00232,3.25595 1.05954,4.32549 0.0882,1.65191 -0.235,4.56359 -0.65145,5.86911 l -0.27679,0.8666 -2.05799,-2.99921 z m -54.95779,1.48696 c -2.53475,-4.12405 -4.25032,-9.19201 -3.96914,-11.72536 l 0.10187,-0.91799 1.33442,3.27377 c 0.73388,1.80056 1.56364,3.95567 1.84386,4.78914 l 0.5094,1.51539 0.3162,-0.91331 c 0.17416,-0.5023 0.59885,-1.7457 0.94454,-2.76314 0.3457,-1.01743 0.79721,-2.10805 1.0035,-2.42362 0.37137,-0.56809 0.37554,-0.56702 0.42399,0.10646 0.0955,1.32323 -0.28071,6.05242 -0.59025,7.42472 -0.1722,0.76509 -0.38548,1.91657 -0.47321,2.55872 l -0.15937,1.16757 -1.28609,-2.09244 z m 52.36152,-8.91884 c -3.03841,-3.51966 -3.61819,-4.26095 -4.77607,-6.10688 l -0.90276,-1.4393 1.29416,0.91532 c 1.50499,1.06442 2.22534,1.70095 3.89567,3.44225 l 1.21604,1.26771 -0.46126,-1.95597 c -0.25368,-1.07579 -0.82261,-3.32267 -1.26427,-4.9931 l -0.80302,-3.03716 1.022,1.27096 c 0.94193,1.17131 1.1039,1.53069 2.06748,4.58683 0.81007,2.56943 1.09186,3.8417 1.25143,5.65151 0.32924,3.73235 0.33803,3.73098 -2.53944,0.39782 z m -53.32796,0.98553 c -0.75451,-1.50007 -1.62827,-4.69792 -1.68865,-6.18023 -0.0559,-1.37263 0.54582,-4.45509 0.91553,-4.69004 0.12063,-0.0767 0.28087,1.02262 0.35814,2.45789 0.0861,1.59457 0.33059,3.19203 0.63349,4.13983 l 0.4932,1.54334 0.92791,-1.82304 c 1.10676,-2.17436 2.40016,-4.0649 2.52146,-3.68544 0.23476,0.73476 -2.50997,8.05462 -3.34996,8.93388 -0.25323,0.26505 -0.38463,0.15224 -0.81142,-0.6962 z m 47.85776,-9.92968 c -3.28077,-2.58346 -5.26559,-4.45512 -4.79699,-4.5235 0.24999,-0.0378 4.20993,2.41989 5.25193,3.2578 0.51484,0.41403 0.99938,0.74353 1.07678,0.73222 0.24352,-0.0362 -1.34663,-3.61354 -2.51836,-5.667 -0.61781,-1.08268 -1.09599,-2.02961 -1.06269,-2.10424 0.0334,-0.0745 0.54118,0.23591 1.12859,0.68998 2.02637,1.56654 4.0497,5.29493 4.8156,8.87364 0.1937,0.905 0.22325,1.58885 0.0706,1.61283 -0.14595,0.0223 -1.93059,-1.26939 -3.96547,-2.87172 z m -2.27912,-4.09649 c -1.83466,-1.41837 -6.3202,-5.91167 -6.51741,-6.52868 -0.31767,-0.99405 5.30032,2.65335 6.56024,4.25915 1.03369,1.31745 2.40262,3.71949 2.14148,3.75762 -0.11996,0.0174 -1.10296,-0.65214 -2.18431,-1.48809 z m -45.13891,7.47372 c -0.38175,-1.20793 -0.0227,-3.73198 0.78206,-5.49898 0.81998,-1.80047 2.59658,-3.92855 2.78567,-3.33686 0.0568,0.17764 0.0465,1.16226 -0.0228,2.18811 -0.15563,2.30316 -1.23565,5.11886 -2.43779,6.35544 l -0.90525,0.9312 -0.20206,-0.63888 z"
       id="path5044"
       inkscape:connector-curvature="0" />
  </g>
  <g
     inkscape:groupmode="layer"
     id="layer6"
     inkscape:label="Layer 6" />
</svg>
